<?xml version="1.0" encoding="utf-8"?>
<!-- Generator: Adobe Illustrator 26.0.2, SVG Export Plug-In . SVG Version: 6.00 Build 0)  -->
<svg version="1.1" id="图层_1" xmlns="http://www.w3.org/2000/svg" xmlns:xlink="http://www.w3.org/1999/xlink" x="0px" y="0px"
	 viewBox="0 0 125.02 125.02" style="enable-background:new 0 0 125.02 125.02;" xml:space="preserve">
<style type="text/css">
	.st0{fill:url(#SVGID_1_);}
	.st1{fill:url(#SVGID_00000052787913927023428810000007995478854432523689_);}
	.st2{fill:url(#SVGID_00000076586590719849114540000004924267892064138668_);}
	.st3{fill:url(#SVGID_00000053542572410725245380000002192774914516958117_);}
	.st4{fill:url(#SVGID_00000115474829471736987860000009592141540847409569_);}
	.st5{fill:url(#SVGID_00000132781290060258534640000014603442365035582859_);}
	.st6{fill:url(#SVGID_00000179643029563180893210000000030930191282132356_);}
</style>
<g>
	
		<radialGradient id="SVGID_1_" cx="62.0558" cy="99.0397" r="115.8167" gradientTransform="matrix(1 0 0 -1 0 125.89)" gradientUnits="userSpaceOnUse">
		<stop  offset="0" style="stop-color:#01D9FF"/>
		<stop  offset="0.4459" style="stop-color:#5D87FF"/>
		<stop  offset="0.884" style="stop-color:#0042FC"/>
	</radialGradient>
	<polygon class="st0" points="84.03,41.07 94.83,34.84 94.83,18.66 84.76,12.85 84.76,32.63 68.17,42.34 77.64,47.81 77.63,47.81 
		77.63,58.05 85.52,62.61 85.52,111.74 94.17,106.74 94.17,56.57 84.03,50.9 	"/>
	
		<radialGradient id="SVGID_00000010993322470341926450000015215151751482119585_" cx="62.0558" cy="99.0397" r="115.8167" gradientTransform="matrix(1 0 0 -1 0 125.89)" gradientUnits="userSpaceOnUse">
		<stop  offset="0" style="stop-color:#01D9FF"/>
		<stop  offset="0.526" style="stop-color:#5D87FF"/>
		<stop  offset="0.9593" style="stop-color:#0042FC"/>
	</radialGradient>
	<polygon style="fill:url(#SVGID_00000010993322470341926450000015215151751482119585_);" points="55.27,69.5 62.51,73.68 
		69.75,69.5 69.75,52.37 62.51,48.19 55.27,52.37 	"/>
	
		<radialGradient id="SVGID_00000122687971417364514470000003977681482317466256_" cx="62.0558" cy="99.0397" r="115.8167" gradientTransform="matrix(1 0 0 -1 0 125.89)" gradientUnits="userSpaceOnUse">
		<stop  offset="0" style="stop-color:#01D9FF"/>
		<stop  offset="0.526" style="stop-color:#5D87FF"/>
		<stop  offset="0.9593" style="stop-color:#0042FC"/>
	</radialGradient>
	<polygon style="fill:url(#SVGID_00000122687971417364514470000003977681482317466256_);" points="33.76,46.02 22.3,39.4 
		22.3,23.22 8.37,31.26 8.37,93.77 22.3,101.81 22.3,52.63 	"/>
	
		<radialGradient id="SVGID_00000005265714376145291980000004903105460829585575_" cx="62.0558" cy="99.0397" r="115.8167" gradientTransform="matrix(1 0 0 -1 0 125.89)" gradientUnits="userSpaceOnUse">
		<stop  offset="0" style="stop-color:#01D9FF"/>
		<stop  offset="0.526" style="stop-color:#5D87FF"/>
		<stop  offset="0.9593" style="stop-color:#0042FC"/>
	</radialGradient>
	<polygon style="fill:url(#SVGID_00000005265714376145291980000004903105460829585575_);" points="47.4,58.05 47.4,47.81 
		56.87,42.34 40.28,32.63 40.28,12.84 30.19,18.66 30.19,34.84 40.99,41.08 40.99,50.95 30.19,57.19 30.19,106.36 39.51,111.74 
		39.51,62.61 	"/>
	
		<radialGradient id="SVGID_00000096769940666965865780000004025303017105764791_" cx="62.0558" cy="99.0397" r="115.8167" gradientTransform="matrix(1 0 0 -1 0 125.89)" gradientUnits="userSpaceOnUse">
		<stop  offset="0" style="stop-color:#01D9FF"/>
		<stop  offset="0.526" style="stop-color:#5D87FF"/>
		<stop  offset="0.9593" style="stop-color:#0042FC"/>
	</radialGradient>
	<polygon style="fill:url(#SVGID_00000096769940666965865780000004025303017105764791_);" points="47.37,74.06 47.37,116.28 
		62.51,125.02 77.63,116.29 77.63,74.06 62.5,82.79 	"/>
	
		<radialGradient id="SVGID_00000180353149179821240630000006529590045843339925_" cx="62.0558" cy="99.0397" r="115.8167" gradientTransform="matrix(1 0 0 -1 0 125.89)" gradientUnits="userSpaceOnUse">
		<stop  offset="0" style="stop-color:#01D9FF"/>
		<stop  offset="0.526" style="stop-color:#5D87FF"/>
		<stop  offset="0.9593" style="stop-color:#0042FC"/>
	</radialGradient>
	<polygon style="fill:url(#SVGID_00000180353149179821240630000006529590045843339925_);" points="54.28,25.4 62.52,20.64 
		70.76,25.4 70.76,31.69 76.87,28.11 76.87,8.29 62.51,0 48.17,8.28 48.17,28.11 54.28,31.69 	"/>
	
		<radialGradient id="SVGID_00000089567589895413833800000016730645254001060532_" cx="62.0558" cy="99.0397" r="115.8167" gradientTransform="matrix(1 0 0 -1 0 125.89)" gradientUnits="userSpaceOnUse">
		<stop  offset="0" style="stop-color:#01D9FF"/>
		<stop  offset="0.526" style="stop-color:#5D87FF"/>
		<stop  offset="0.9593" style="stop-color:#0042FC"/>
	</radialGradient>
	<polygon style="fill:url(#SVGID_00000089567589895413833800000016730645254001060532_);" points="102.72,23.22 102.72,39.4 
		91.36,45.95 102.06,51.94 102.06,102.19 116.64,93.77 116.64,31.26 	"/>
</g>
</svg>
